<svg width="549" height="494" viewBox="0 0 549 494" fill="none" xmlns="http://www.w3.org/2000/svg">
<rect width="193" height="364.961" rx="24" transform="matrix(0.991901 -0.127012 0.126818 0.991926 23 131.986)" fill="#6E479E"/>
<rect width="193" height="364.961" rx="24" transform="matrix(0.996662 0.0816444 -0.0815008 0.996673 326 0)" fill="#6E479E"/>
<path d="M279.423 198.978C278.066 198.978 278.129 205.482 274.623 210.152C271.581 214.205 267 215.276 267 216.986C267 218.556 271.574 218.834 274.856 222.939C277.71 226.509 278.422 232.975 279.708 232.975C280.993 232.975 280.643 226.847 283.977 222.548C287.375 218.166 292 218.072 292 216.608C292 215.115 286.565 213.888 283.737 209.83C280.761 205.557 280.923 198.978 279.423 198.978Z" fill="#F6FCF4"/>
<path d="M254.467 241.974C253.869 241.974 253.896 244.843 252.354 246.903C251.016 248.692 249 249.165 249 249.919C249 250.61 251.012 250.733 252.457 252.545C253.712 254.12 254.026 256.972 254.593 256.972C255.157 256.972 255.003 254.268 256.469 252.373C257.966 250.44 260 250.398 260 249.752C260 249.093 257.609 248.552 256.365 246.762C255.055 244.875 255.127 241.974 254.467 241.974Z" fill="#F6FCF4"/>
<path d="M26.4233 405.956C25.0657 405.956 25.128 412.46 21.6224 417.129C18.5806 421.182 14 422.254 14 423.964C14 425.535 18.5728 425.811 21.8557 429.918C24.7096 433.486 25.422 439.952 26.7085 439.952C27.994 439.952 27.6433 433.825 30.9769 429.527C34.3753 425.145 39 425.049 39 423.585C39 422.093 33.5653 420.866 30.738 416.809C27.7617 412.534 27.9224 405.956 26.4233 405.956Z" fill="#F6FCF4"/>
<path d="M5.46616 451.951C4.86922 451.951 4.89622 454.82 3.35387 456.881C2.0153 458.668 0 459.14 0 459.896C0 460.588 2.01203 460.711 3.45643 462.521C4.7123 464.096 5.02578 466.949 5.59148 466.949C6.15766 466.949 6.00352 464.246 7.4702 462.349C8.96533 460.416 11 460.374 11 459.728C11 459.07 8.60862 458.528 7.36473 456.738C6.05498 454.854 6.12594 451.951 5.46616 451.951Z" fill="#F6FCF4"/>
<path d="M536.422 331.964C535.066 331.964 535.127 338.467 531.623 343.136C528.58 347.189 524 348.26 524 349.971C524 351.541 528.573 351.819 531.855 355.925C534.71 359.493 535.422 365.96 536.709 365.96C537.994 365.96 537.643 359.831 540.977 355.533C544.376 351.151 549 351.057 549 349.592C549 348.101 543.566 346.873 540.739 342.814C537.761 338.541 537.922 331.964 536.422 331.964Z" fill="#F6FCF4"/>
<path d="M514.467 300.967C513.87 300.967 513.896 303.837 512.355 305.896C511.016 307.684 509 308.157 509 308.911C509 309.604 511.014 309.728 512.457 311.539C513.712 313.112 514.026 315.966 514.593 315.966C515.157 315.966 515.003 313.262 516.469 311.365C517.966 309.432 520 309.39 520 308.745C520 308.087 517.61 307.545 516.365 305.754C515.055 303.869 515.127 300.967 514.467 300.967Z" fill="#F6FCF4"/>
<path d="M452 407.956H420.401C417.046 451.826 390.696 460.969 383.029 462.708V450.708L356 471.826L383.029 492.947V480.253C444.217 475.365 452 407.956 452 407.956Z" fill="url(#paint0_linear_53_1730)"/>
<path d="M103 87.9905H134.597C137.952 44.1197 164.304 34.9771 171.97 33.2368V45.2389L199 24.1193L171.97 2.9997V15.6922C110.782 20.58 103 87.9905 103 87.9905Z" fill="url(#paint1_linear_53_1730)"/>
<path d="M470.285 358.961C469.971 358.961 469.654 358.947 469.335 358.919L315.915 345.643C309.944 345.127 305.524 339.878 306.041 333.922L307.992 311.485L316.069 218.527L370.864 185.901C381.777 196.415 396.762 203.349 413.259 205.006C415.442 205.225 417.612 205.332 419.761 205.332C452.298 205.332 480.177 180.724 483.506 147.729C484.451 138.364 483.333 129.152 480.52 120.609L502.048 107.79L482.146 336.817L481.083 349.068C480.592 354.708 475.853 358.961 470.285 358.961ZM371.007 257.514L370.362 264.947L435.834 270.614L436.481 263.18L371.007 257.514ZM372.871 236.064L372.226 243.498L472.87 252.206L473.516 244.773L372.871 236.064ZM322.553 143.918L326.68 96.4219C350.578 82.1353 412.033 45.6284 449.849 24.1428L498.065 28.3147C500.817 28.5528 503.239 29.7959 505 31.6504L434.006 75.3359C428.612 73.205 422.836 71.7741 416.778 71.1651C414.593 70.9462 412.424 70.8385 410.276 70.8385C377.739 70.8385 349.858 95.448 346.531 128.442C346.504 128.697 346.48 128.954 346.458 129.209L322.553 143.918ZM330.794 49.0825L332.897 24.8905C333.386 19.2517 338.126 14.9984 343.693 14.9984C344.007 14.9984 344.323 15.0116 344.643 15.0391L390.186 18.9801L330.794 49.0825Z" fill="url(#paint2_linear_53_1730)"/>
<path d="M338.319 249.951C337.128 249.372 335.067 251.546 335.001 252.298C334.935 253.048 338.696 258.127 338.976 258.48C339.256 258.833 342.69 259.17 343.071 258.833C343.45 258.494 345.239 250.052 360.961 234.08C361.794 233.23 349.155 237.312 341.068 254.136C341.068 254.136 339.206 250.381 338.319 249.951Z" fill="#6FCEC3"/>
<path d="M472.356 251.973L372 243.342L372.643 235.974L473 244.606L472.356 251.973Z" fill="url(#paint3_linear_53_1730)"/>
<path d="M436.355 269.971L371 264.348L371.644 256.972L437 262.595L436.355 269.971Z" fill="url(#paint4_linear_53_1730)"/>
<path d="M353.301 138.109C349.75 173.385 378.12 201.1 413.386 204.65C448.654 208.201 480.121 182.483 483.671 147.207C487.22 111.931 461.673 78.8195 426.407 75.269C391.139 71.7173 356.85 102.834 353.301 138.109Z" fill="#B5571F"/>
<path d="M347.327 127.577C343.787 162.74 369.425 194.113 404.591 197.652C439.756 201.191 471.134 175.556 474.673 140.394C478.214 105.233 452.575 73.858 417.409 70.3189C382.243 66.7798 350.866 92.4146 347.327 127.577Z" fill="#F79722"/>
<path d="M364 117.987C370.745 97.9264 389.606 83.9909 411.084 83.9909C412.75 83.9909 414.437 84.0754 416.13 84.2468C416.757 84.3096 417.381 84.3856 418 84.4714L379.967 108.076C379.419 107.567 378.653 107.247 377.876 107.247C377.059 107.247 376.231 107.599 375.629 108.453C374.767 109.678 373.971 110.947 373.242 112.251L364 117.987Z" fill="#F9D632"/>
<path d="M404.528 197.979C404.519 197.979 404.511 197.977 404.503 197.976C404.511 197.977 404.519 197.979 404.528 197.979ZM404.469 197.973C404.458 197.971 404.45 197.971 404.439 197.97C404.45 197.971 404.458 197.971 404.469 197.973ZM404.408 197.966C404.391 197.965 404.373 197.963 404.357 197.962C404.373 197.963 404.391 197.965 404.408 197.966ZM404.328 197.958C404.316 197.957 404.303 197.956 404.29 197.954C404.303 197.956 404.315 197.957 404.328 197.958ZM404.271 197.952C404.257 197.951 404.245 197.95 404.231 197.948C404.244 197.95 404.259 197.951 404.271 197.952ZM404.216 197.946C404.169 197.941 404.122 197.936 404.077 197.931C404.121 197.936 404.17 197.941 404.216 197.946ZM404.071 197.93C404.055 197.929 404.04 197.927 404.024 197.925C404.039 197.927 404.055 197.929 404.071 197.93ZM404.016 197.924C403.283 197.843 402.553 197.751 401.828 197.644C402.553 197.751 403.281 197.843 404.016 197.924ZM401.822 197.644C401.757 197.635 401.694 197.625 401.629 197.616C401.694 197.625 401.756 197.635 401.822 197.644ZM401.616 197.614C401.604 197.612 401.589 197.61 401.575 197.608C401.589 197.61 401.604 197.612 401.616 197.614ZM401.56 197.606C401.517 197.599 401.477 197.593 401.434 197.587C401.476 197.593 401.517 197.599 401.56 197.606ZM401.412 197.583C401.401 197.582 401.39 197.579 401.379 197.578C401.39 197.579 401.402 197.582 401.412 197.583ZM401.348 197.573C401.34 197.572 401.333 197.571 401.324 197.57C401.333 197.571 401.34 197.572 401.348 197.573ZM401.266 197.561C401.263 197.56 401.261 197.56 401.258 197.56C401.261 197.56 401.264 197.56 401.266 197.561ZM401.205 197.552C401.2 197.55 401.194 197.549 401.19 197.549C401.195 197.549 401.2 197.55 401.205 197.552ZM401.141 197.541C401.136 197.541 401.133 197.54 401.129 197.54C401.133 197.54 401.136 197.541 401.141 197.541ZM401.002 197.519H401H401.002ZM474.681 140.189C474.682 140.183 474.682 140.173 474.683 140.167C474.682 140.174 474.682 140.182 474.681 140.189ZM474.687 140.125C474.688 140.117 474.689 140.109 474.689 140.1C474.689 140.109 474.688 140.117 474.687 140.125ZM474.695 140.043C474.696 140.032 474.696 140.025 474.697 140.014C474.697 140.022 474.696 140.033 474.695 140.043ZM474.701 139.983C474.702 139.969 474.702 139.962 474.703 139.949C474.702 139.961 474.702 139.971 474.701 139.983ZM474.707 139.919C474.708 139.902 474.71 139.884 474.712 139.867C474.71 139.885 474.708 139.901 474.707 139.919ZM474.715 139.833C474.716 139.821 474.716 139.809 474.718 139.796C474.716 139.809 474.716 139.82 474.715 139.833ZM474.72 139.775C474.721 139.761 474.722 139.75 474.724 139.734C474.722 139.749 474.721 139.761 474.72 139.775ZM474.725 139.726C474.727 139.696 474.731 139.664 474.733 139.634C474.731 139.666 474.727 139.694 474.725 139.726ZM474.733 139.627C474.736 139.61 474.737 139.597 474.738 139.579C474.737 139.596 474.736 139.611 474.733 139.627ZM474.738 139.574C474.743 139.522 474.748 139.474 474.752 139.422C474.748 139.473 474.743 139.523 474.738 139.574ZM474.752 139.421C474.885 137.9 474.964 136.389 474.99 134.885C474.964 136.387 474.884 137.902 474.752 139.421ZM474.99 134.88C474.992 134.832 474.993 134.785 474.993 134.736C474.993 134.784 474.992 134.832 474.99 134.88ZM474.993 134.725C474.994 134.709 474.994 134.695 474.994 134.68C474.994 134.695 474.994 134.709 474.993 134.725ZM474.994 134.672C474.994 134.644 474.995 134.619 474.995 134.591C474.995 134.617 474.994 134.645 474.994 134.672ZM474.995 134.572C474.995 134.561 474.995 134.545 474.996 134.534C474.995 134.547 474.995 134.558 474.995 134.572ZM474.996 134.506C474.996 134.496 474.996 134.487 474.996 134.476C474.996 134.487 474.996 134.496 474.996 134.506ZM474.998 134.42C474.998 134.411 474.998 134.405 474.998 134.395C474.998 134.405 474.998 134.411 474.998 134.42ZM474.998 134.356C474.998 134.346 474.998 134.341 474.998 134.333C474.998 134.34 474.998 134.347 474.998 134.356ZM474.999 134.283C474.999 134.279 474.999 134.274 474.999 134.27C474.999 134.275 474.999 134.277 474.999 134.283ZM474.999 134.207C474.999 134.203 474.999 134.197 474.999 134.193C474.999 134.197 474.999 134.203 474.999 134.207ZM475 134.139C475 134.134 475 134.131 475 134.127C475 134.131 475 134.134 475 134.139ZM475 133.993C475 133.992 475 133.988 475 133.985C475 133.989 475 133.99 475 133.993Z" fill="#B74E1E"/>
<path d="M411.051 197.979C408.909 197.979 406.739 197.871 404.562 197.653C404.542 197.652 404.523 197.649 404.504 197.647C404.495 197.647 404.487 197.646 404.479 197.644C404.468 197.643 404.456 197.642 404.445 197.641C404.434 197.64 404.426 197.64 404.415 197.638C404.404 197.637 404.395 197.636 404.384 197.635C404.367 197.634 404.349 197.631 404.333 197.63C404.323 197.629 404.314 197.628 404.304 197.627C404.291 197.625 404.279 197.624 404.266 197.623C404.26 197.622 404.253 197.622 404.247 197.621C404.235 197.619 404.22 197.618 404.207 197.617C404.202 197.616 404.196 197.616 404.191 197.615C404.146 197.61 404.097 197.605 404.053 197.6C404.051 197.599 404.048 197.599 404.047 197.599C404.031 197.598 404.014 197.596 404 197.594C403.996 197.594 403.994 197.593 403.992 197.593C403.257 197.513 402.528 197.421 401.803 197.316C401.799 197.316 401.799 197.316 401.797 197.316C401.731 197.307 401.669 197.297 401.604 197.288C401.6 197.288 401.596 197.286 401.591 197.286C401.579 197.284 401.564 197.282 401.55 197.281C401.546 197.279 401.54 197.278 401.535 197.278C401.492 197.271 401.451 197.265 401.409 197.259C401.402 197.258 401.394 197.257 401.387 197.255C401.377 197.254 401.365 197.252 401.354 197.251C401.343 197.25 401.334 197.247 401.323 197.246C401.315 197.245 401.308 197.244 401.299 197.242C401.28 197.24 401.26 197.236 401.241 197.234C401.239 197.233 401.236 197.233 401.233 197.233C401.215 197.229 401.197 197.227 401.179 197.224C401.175 197.223 401.17 197.222 401.165 197.222C401.148 197.22 401.132 197.217 401.116 197.214C401.111 197.214 401.108 197.213 401.104 197.213C401.061 197.205 401.02 197.199 400.977 197.192H400.975C390.095 195.487 380.232 191.1 372 184.787L385.581 176.707C391.627 180.297 398.537 182.657 406.001 183.407C407.689 183.576 409.372 183.66 411.034 183.66C436.226 183.662 457.809 164.625 460.386 139.099C460.625 136.733 460.692 134.386 460.599 132.076L474.196 123.987C474.74 127.364 475.015 130.823 474.999 134.334C474.999 134.336 474.999 134.34 474.999 134.341C474.999 134.385 474.999 134.429 474.999 134.473C474.999 134.478 474.999 134.48 474.999 134.485C474.999 134.502 474.999 134.521 474.998 134.539C474.998 134.542 474.998 134.548 474.998 134.553C474.998 134.573 474.998 134.595 474.998 134.615C474.998 134.619 474.998 134.623 474.998 134.628C474.998 134.644 474.998 134.66 474.997 134.677C474.997 134.686 474.997 134.69 474.997 134.7C474.997 134.713 474.997 134.726 474.997 134.739C474.997 134.749 474.997 134.755 474.997 134.763C474.997 134.781 474.996 134.802 474.996 134.819C474.996 134.83 474.996 134.838 474.996 134.849C474.996 134.857 474.996 134.868 474.996 134.876C474.995 134.887 474.995 134.903 474.995 134.913C474.995 134.919 474.995 134.927 474.995 134.933C474.995 134.96 474.993 134.985 474.993 135.012C474.993 135.015 474.993 135.017 474.993 135.021C474.993 135.035 474.993 135.049 474.992 135.065C474.992 135.069 474.992 135.071 474.992 135.076C474.992 135.125 474.991 135.171 474.99 135.219C474.99 135.221 474.99 135.221 474.99 135.224C474.963 136.711 474.885 138.207 474.752 139.711C474.752 139.713 474.752 139.711 474.752 139.712C474.747 139.764 474.742 139.811 474.737 139.863C474.737 139.865 474.737 139.866 474.737 139.867C474.736 139.885 474.735 139.898 474.733 139.915C474.733 139.917 474.733 139.921 474.733 139.922C474.73 139.952 474.727 139.983 474.724 140.013C474.724 140.014 474.723 140.02 474.723 140.021C474.722 140.037 474.721 140.048 474.719 140.062C474.719 140.068 474.718 140.076 474.717 140.082C474.716 140.095 474.716 140.107 474.715 140.119C474.713 140.13 474.712 140.142 474.711 140.153C474.71 140.169 474.707 140.187 474.706 140.204C474.705 140.212 474.704 140.224 474.703 140.234C474.701 140.247 474.701 140.254 474.7 140.267C474.699 140.278 474.698 140.287 474.697 140.298C474.695 140.309 474.695 140.316 474.694 140.327C474.692 140.346 474.691 140.364 474.688 140.383C474.688 140.392 474.687 140.4 474.686 140.408C474.685 140.421 474.683 140.437 474.682 140.45C474.681 140.456 474.681 140.465 474.68 140.471C474.677 140.491 474.675 140.513 474.674 140.533C471.352 173.44 443.527 197.982 411.051 197.979Z" fill="#F68623"/>
<path d="M410.433 183.98C408.772 183.98 407.091 183.896 405.404 183.725C397.946 182.97 391.041 180.591 385 176.972L403.999 165.57L406.703 170.748L417.446 157.5L459.96 131.986C460.053 134.314 459.986 136.68 459.747 139.064C457.172 164.794 435.606 183.982 410.433 183.98Z" fill="#FABB29"/>
<path d="M406.614 170.981L404 165.9L417 157.983L406.614 170.981Z" fill="#F57E21"/>
<path d="M379.999 88.9904C378.245 88.9904 377.083 86.201 378.959 84.9124C386.646 79.6315 395.661 76.5944 404.946 75.9965C405.001 75.993 405.056 75.9918 405.109 75.9918C407.692 75.9918 407.62 80.1126 404.946 80.2841C396.395 80.8344 388.176 83.7631 381.114 88.614C380.732 88.8772 380.353 88.9904 379.999 88.9904Z" fill="#F9AA20"/>
<path d="M420.596 80.9912C418.356 80.9912 415.202 79.7215 414.113 79.6465C411.313 79.4541 411.334 74.9912 413.948 74.9912C414.001 74.9912 414.057 74.9938 414.113 74.9977C416.74 75.1772 419.38 75.876 421.8 76.965C422.511 77.2853 422.86 77.7865 422.945 78.3367C423.264 80.3815 422.149 80.9912 420.596 80.9912Z" fill="#F9AA20"/>
<path d="M373 111.988C373.758 110.685 374.587 109.417 375.484 108.193C376.111 107.34 376.973 106.988 377.823 106.988C378.632 106.988 379.429 107.308 380 107.817L373 111.988Z" fill="#FAE750"/>
<path d="M327 95.9896L331.108 48.314L390.418 17.998L450 23.1973C412.236 44.8354 350.865 81.6015 327 95.9896Z" fill="url(#paint5_linear_53_1730)"/>
<path d="M316 217.976L322.487 143.326L346.403 128.609C344.533 149.635 353.087 169.236 367.846 182.264C368.8 183.318 369.793 184.341 370.821 185.333L316 217.976ZM480.53 120.005C474.748 102.441 461.803 87.702 444.867 80.2608C441.459 78.0857 437.822 76.2194 433.993 74.7063L505.021 30.9966C507.082 33.1669 508.238 36.1741 507.959 39.3883L502.068 107.179L480.53 120.005Z" fill="url(#paint6_linear_53_1730)"/>
<path d="M370.957 184.98C369.935 183.99 368.948 182.967 368 181.914C369.095 182.887 370.227 183.824 371.39 184.72L370.957 184.98ZM473.216 123.764C470.312 105.599 459.698 89.7065 444.554 79.9913C461.387 87.4266 474.253 102.154 480 119.704L473.216 123.764Z" fill="#A96D2A"/>
<path d="M371.999 184.98C370.834 184.086 369.7 183.151 368.603 182.181C353.908 169.198 345.392 149.664 347.254 128.71L363.956 118.422C362.777 121.902 361.97 125.568 361.586 129.378C360.44 140.749 363.243 151.607 368.879 160.595C363.8 161.513 358.643 162.078 353.47 162.308C357.813 171.182 364.166 178.956 372.004 184.978L371.999 184.98ZM474 124.185C471.175 106.601 461.077 91.1593 446.617 81.4054C445.272 86.2752 443.806 91.1259 442.143 95.8931C435.336 90.3648 426.99 86.5794 417.728 85.2993L434.462 74.9919C438.274 76.4998 441.895 78.3597 445.288 80.5274C460.459 90.2169 471.091 106.067 474 124.185Z" fill="#F9AB29"/>
<path d="M368.564 159.983C362.915 150.912 360.105 139.953 361.253 128.477C361.639 124.631 362.448 120.931 363.63 117.419L372.855 111.698C369.276 118.1 367.335 125.379 367.191 132.737C367.158 134.48 368.488 135.352 369.834 135.352C371.181 135.352 372.545 134.48 372.578 132.737C372.733 124.78 375.318 117.13 379.889 110.646C380.716 109.47 380.382 108.293 379.567 107.534L417.528 83.9909C426.812 85.2828 435.178 89.1032 442 94.6826C438.367 105.164 433.788 115.238 427.452 124.21L414.369 96.6704L389.01 130.475L411.922 121.128L423.776 129.042C423.242 129.693 422.697 130.336 422.141 130.973L411.618 124.17L390.432 132.616L405.769 145.257C404.465 146.13 403.141 146.966 401.798 147.767L388.569 134.885L396.752 150.559C387.912 155.096 378.378 158.198 368.564 159.983ZM370.664 139.17C369.075 139.17 367.384 140.47 367.844 142.517C368.254 144.341 368.921 146.106 369.748 147.78C370.234 148.764 370.942 149.165 371.667 149.165C373.325 149.165 375.078 147.068 374.503 145.017C374.118 143.647 373.298 142.227 373.039 141.076C372.741 139.75 371.726 139.17 370.664 139.17Z" fill="#F9DF42"/>
<path d="M405.477 145.984L390 133.397L411.38 124.986L422 131.76C420.282 133.699 418.457 135.568 416.514 137.358C413.044 140.555 409.351 143.427 405.477 145.984Z" fill="#F8A023"/>
<path d="M396.041 150.984L388 134.985L401 148.134C399.374 149.139 397.721 150.088 396.041 150.984Z" fill="#F8A023"/>
<path d="M389 130.986L414.067 96.9895L427 124.686C425.85 126.343 424.639 127.966 423.366 129.545L411.648 121.586L389 130.986Z" fill="#F8A023"/>
<path d="M371.606 184.98C363.738 178.935 357.359 171.129 353 162.219C358.193 161.988 363.37 161.421 368.469 160.499C372.649 167.163 378.379 172.801 385.213 176.868L371.606 184.98ZM460.376 132.064C459.788 117.515 452.843 104.331 442.018 95.5372C443.689 90.7508 445.16 85.8806 446.51 80.9912C461.027 90.7843 471.164 106.289 474 123.943L460.376 132.064Z" fill="#F89A26"/>
<path d="M384.761 176.981C377.92 172.93 372.184 167.316 368 160.68C377.839 158.912 387.398 155.839 396.26 151.344L403.831 165.672L384.761 176.981ZM417.328 157.668L431.679 140.181L408.131 155.133L401.319 148.578C402.665 147.785 403.993 146.957 405.3 146.092L408.762 148.913L430.383 137.481L421.714 131.941C422.272 131.31 422.818 130.673 423.353 130.028L432.122 135.812L427.039 125.241C433.39 116.353 437.981 106.373 441.624 95.9896C452.459 104.747 459.412 117.876 460 132.364L417.328 157.668Z" fill="#FCCA38"/>
<path d="M409.451 148.984L406 146.159C409.835 143.61 413.492 140.749 416.928 137.563C418.851 135.78 420.659 133.917 422.36 131.986L431 137.533L409.451 148.984Z" fill="#F79323"/>
<path d="M404.481 164.982L397 150.37C398.694 149.483 400.36 148.544 401.999 147.549L408.731 154.233L432 138.985L417.819 156.82L404.481 164.982Z" fill="#F79323"/>
<path d="M433 134.985L424 128.967C425.325 127.349 426.586 125.686 427.783 123.987L433 134.985Z" fill="#F79323"/>
<path d="M369.608 135.985C368.28 135.985 366.968 135.108 367.001 133.353C367.142 125.948 369.058 118.622 372.588 112.179L379.21 107.988C380.014 108.752 380.344 109.937 379.528 111.12C375.019 117.646 372.468 125.345 372.315 133.353C372.282 135.108 370.937 135.985 369.608 135.985Z" fill="#F9ED62"/>
<path d="M371.987 149.984C371.245 149.984 370.522 149.583 370.025 148.598C369.18 146.924 368.498 145.158 368.078 143.333C367.608 141.286 369.338 139.985 370.962 139.985C372.047 139.985 373.085 140.565 373.389 141.892C373.654 143.043 374.492 144.463 374.886 145.834C375.473 147.887 373.682 149.984 371.987 149.984Z" fill="#F9ED62"/>
<path d="M467.901 378.33C478.272 379.24 487.383 371.527 488.279 361.162L516.375 36.3717C516.809 31.3508 515.267 26.4605 512.032 22.6015C508.798 18.7424 504.257 16.3781 499.249 15.9422L346.099 2.62952C341.092 2.20193 336.212 3.74103 332.361 6.98325C328.514 10.2255 326.154 14.7768 325.721 19.7988L297.624 344.588C296.728 354.954 304.412 364.118 314.751 365.017L467.901 378.33ZM469.541 379.959C468.954 379.959 468.362 379.932 467.767 379.881L314.616 366.568C303.424 365.596 295.108 355.674 296.077 344.454L324.174 19.6635C324.643 14.2283 327.196 9.302 331.363 5.7915C335.53 2.27979 340.821 0.605408 346.233 1.07852L499.381 14.3923C504.805 14.863 509.72 17.4226 513.221 21.6002C516.724 25.7766 518.392 31.0706 517.922 36.507L489.827 361.297C488.908 371.92 479.988 379.959 469.541 379.959Z" fill="#F5FBF1"/>
<path d="M84.9717 470.949C79.606 470.949 74.9519 466.946 74.2617 461.47L43.9223 220.824L69.4285 234.647C67.1618 242.859 66.4377 251.603 67.5519 260.439C71.6336 292.815 99.1459 316.475 130.869 316.475C133.54 316.475 136.244 316.307 138.963 315.963C155.62 313.853 170.586 306.325 181.223 295.235L233.286 323.452L247.913 439.467C248.662 445.404 244.467 450.826 238.544 451.577L95.0299 469.761L86.3411 470.862C85.8811 470.92 85.4238 470.949 84.9717 470.949ZM186.416 364.817L121.462 373.049L122.397 380.457L187.351 372.226L186.416 364.817ZM218.614 339.018L118.767 351.669L119.701 359.079L219.548 346.427L218.614 339.018ZM223.856 248.649L203.423 237.253C199.161 205.087 171.748 181.63 140.157 181.63C137.488 181.63 134.782 181.798 132.064 182.143C125.591 182.963 119.469 184.726 113.815 187.279L38 144.997C39.6824 143.057 42.055 141.707 44.7989 141.359L56.2475 139.909L92.9443 135.259C131.451 155.049 193.478 188.438 217.935 201.692L223.856 248.649ZM212.008 154.675L152.664 127.691L197.002 122.074C197.462 122.015 197.92 121.987 198.371 121.987C198.433 121.987 198.495 121.988 198.558 121.989C203.845 122.08 208.4 126.053 209.082 131.466L212.008 154.675Z" fill="url(#paint7_linear_53_1730)"/>
<path d="M87.6824 372.847C86.4265 372.538 84.9112 375.036 85.0041 375.768C85.0978 376.498 89.7325 380.583 90.0732 380.862C90.4139 381.143 93.7575 380.762 94.0497 380.363C94.342 379.964 94.2992 371.531 105.975 353.057C106.595 352.077 95.3935 358.558 91.1676 376.284C91.1676 376.284 88.6158 373.078 87.6824 372.847Z" fill="#6FCEC3"/>
<path d="M119.936 358.961L119 351.574L219.064 338.963L220 346.349L119.936 358.961Z" fill="url(#paint8_linear_53_1730)"/>
<path d="M121.937 379.959L121 372.38L186.063 363.961L187 371.539L121.937 379.959Z" fill="url(#paint9_linear_53_1730)"/>
<path d="M197.53 247.392C201.972 282.574 174.335 311.007 139.191 315.452C104.048 319.899 71.9584 294.983 67.5167 259.802C63.0748 224.62 87.7571 190.862 122.9 186.415C158.043 181.97 193.089 212.21 197.53 247.392Z" fill="#B5571F"/>
<path d="M203.488 237.95C207.92 273.01 183.088 305.023 148.025 309.454C112.961 313.886 80.9437 289.057 76.5119 253.997C72.0806 218.937 96.9115 186.923 131.975 182.492C167.04 178.061 199.056 202.89 203.488 237.95Z" fill="#F79722"/>
<path d="M186 226.975L176.119 221.381C173.789 217.555 170.952 214.049 167.684 210.999C167.138 210.491 166.525 210.275 165.929 210.275C164.063 210.275 162.358 212.375 163.352 214.152L131 195.836C131.948 195.657 132.902 195.505 133.869 195.38C135.966 195.111 138.052 194.979 140.111 194.979C160.562 194.979 178.744 207.921 186 226.975Z" fill="#F9D632"/>
<path d="M140.067 309.966C140.064 309.966 140.061 309.966 140.058 309.966C140.061 309.966 140.064 309.966 140.067 309.966ZM140.068 309.966C142.749 309.966 145.464 309.799 148.194 309.455C145.462 309.799 142.751 309.966 140.068 309.966ZM148.25 309.448C148.256 309.447 148.266 309.447 148.272 309.446C148.266 309.447 148.256 309.447 148.25 309.448ZM148.308 309.441C148.315 309.44 148.325 309.439 148.331 309.439C148.325 309.439 148.315 309.44 148.308 309.441ZM148.368 309.434C148.374 309.433 148.381 309.432 148.388 309.43C148.381 309.432 148.374 309.433 148.368 309.434ZM148.425 309.426C148.431 309.426 148.441 309.424 148.447 309.423C148.44 309.424 148.433 309.426 148.425 309.426ZM148.503 309.416C148.505 309.416 148.506 309.416 148.507 309.415C148.506 309.416 148.505 309.416 148.503 309.416ZM148.56 309.409C148.566 309.408 148.572 309.407 148.578 309.407C148.573 309.407 148.565 309.408 148.56 309.409ZM148.62 309.401C148.626 309.399 148.632 309.399 148.638 309.398C148.632 309.399 148.626 309.399 148.62 309.401ZM148.675 309.393C148.681 309.392 148.691 309.391 148.698 309.39C148.689 309.391 148.683 309.392 148.675 309.393ZM148.739 309.385C148.742 309.384 148.749 309.383 148.754 309.383C148.749 309.384 148.743 309.384 148.739 309.385ZM148.87 309.367C148.875 309.366 148.878 309.366 148.881 309.366C148.878 309.366 148.875 309.366 148.87 309.367ZM148.929 309.359C148.935 309.358 148.938 309.358 148.944 309.356C148.939 309.358 148.934 309.359 148.929 309.359ZM148.993 309.35C148.995 309.35 148.998 309.349 149 309.349C148.998 309.349 148.995 309.349 148.993 309.35ZM76.5749 254.796C76.5701 254.763 76.5659 254.732 76.5612 254.697C76.5659 254.732 76.5701 254.763 76.5749 254.796ZM76.5106 254.317C76.5074 254.295 76.5046 254.271 76.5012 254.248C76.5046 254.271 76.5074 254.295 76.5106 254.317ZM76.4727 254.021C76.4722 254.018 76.4717 254.013 76.4713 254.009C76.4717 254.014 76.4722 254.018 76.4727 254.021ZM76.4614 253.931C76.4605 253.925 76.4596 253.917 76.4591 253.913C76.4596 253.916 76.4605 253.927 76.4614 253.931ZM76.4498 253.836C76.4488 253.829 76.4484 253.824 76.4469 253.816C76.4479 253.822 76.4488 253.83 76.4498 253.836ZM76.438 253.742C76.4371 253.736 76.4361 253.725 76.4352 253.719C76.4361 253.728 76.4371 253.734 76.438 253.742ZM76.4268 253.649C76.4258 253.639 76.425 253.633 76.424 253.624C76.425 253.632 76.4258 253.641 76.4268 253.649ZM76.4164 253.562C76.4155 253.552 76.4146 253.544 76.4132 253.534C76.4142 253.543 76.4155 253.553 76.4164 253.562ZM76.4057 253.471C76.4048 253.461 76.4039 253.453 76.4029 253.444C76.4039 253.454 76.4048 253.46 76.4057 253.471ZM76.395 253.376C76.3935 253.366 76.3926 253.356 76.3911 253.347C76.3926 253.358 76.3935 253.365 76.395 253.376ZM76.3842 253.282C76.3827 253.271 76.3813 253.26 76.38 253.248C76.3813 253.259 76.3827 253.272 76.3842 253.282ZM76.3729 253.186C76.3715 253.174 76.3705 253.163 76.3692 253.151C76.3705 253.162 76.3719 253.175 76.3729 253.186ZM76.364 253.106C76.3621 253.088 76.3602 253.071 76.3584 253.053C76.3602 253.072 76.3621 253.087 76.364 253.106ZM76.3537 253.011C76.3518 252.996 76.35 252.977 76.3486 252.961C76.35 252.978 76.3518 252.995 76.3537 253.011ZM76.3434 252.917C76.3415 252.902 76.3402 252.885 76.3382 252.869C76.3402 252.885 76.342 252.902 76.3434 252.917ZM76.3331 252.822C76.3316 252.807 76.3302 252.793 76.3289 252.78C76.3302 252.793 76.3316 252.809 76.3331 252.822ZM76.3228 252.724C76.3213 252.711 76.32 252.695 76.3186 252.682C76.32 252.698 76.3213 252.708 76.3228 252.724ZM76.3144 252.643C76.3125 252.624 76.3105 252.604 76.3083 252.585C76.3105 252.604 76.3125 252.624 76.3144 252.643ZM76.3054 252.554C76.3031 252.53 76.3002 252.507 76.2979 252.484C76.3002 252.507 76.3026 252.53 76.3054 252.554ZM76.2955 252.459C76.2933 252.436 76.2904 252.411 76.2886 252.387C76.2904 252.411 76.2933 252.436 76.2955 252.459ZM76.2857 252.361C76.2834 252.339 76.2815 252.322 76.2797 252.3C76.2815 252.319 76.2839 252.342 76.2857 252.361ZM76.2759 252.263C76.2746 252.248 76.2731 252.233 76.2717 252.218C76.2731 252.233 76.2746 252.249 76.2759 252.263ZM76.2689 252.188C76.2665 252.164 76.2642 252.141 76.2618 252.119C76.2642 252.141 76.2665 252.164 76.2689 252.188ZM76.26 252.096C76.2576 252.071 76.2552 252.046 76.253 252.021C76.2552 252.047 76.2572 252.071 76.26 252.096ZM76.2506 251.997C76.2483 251.972 76.2459 251.948 76.2436 251.923C76.2459 251.948 76.2483 251.971 76.2506 251.997ZM76.2412 251.899C76.2389 251.874 76.2365 251.845 76.2343 251.82C76.2365 251.848 76.2389 251.872 76.2412 251.899ZM76.2328 251.802C76.2281 251.752 76.2235 251.703 76.2193 251.653C76.2235 251.702 76.2281 251.753 76.2328 251.802ZM76.2188 251.648C76.2159 251.617 76.2131 251.586 76.2107 251.555C76.2131 251.585 76.2159 251.618 76.2188 251.648ZM76.2094 251.541C76.2065 251.511 76.2047 251.486 76.2019 251.456C76.2047 251.484 76.207 251.513 76.2094 251.541ZM76.2009 251.441C76.1986 251.413 76.1957 251.383 76.1939 251.356C76.1957 251.385 76.1986 251.413 76.2009 251.441ZM76.1925 251.342C76.1883 251.294 76.1841 251.241 76.1803 251.194C76.1841 251.243 76.1883 251.293 76.1925 251.342ZM76.1799 251.191C76.1775 251.158 76.1752 251.129 76.1724 251.096C76.1748 251.128 76.1775 251.159 76.1799 251.191ZM76.1709 251.078C76.1686 251.051 76.1667 251.024 76.1644 250.997C76.1667 251.024 76.1686 251.05 76.1709 251.078ZM76.163 250.979C76.1611 250.952 76.1588 250.923 76.1569 250.895C76.1588 250.924 76.1611 250.951 76.163 250.979ZM76.1554 250.882C76.1537 250.853 76.1512 250.822 76.149 250.794C76.1512 250.824 76.1537 250.852 76.1554 250.882ZM76.148 250.783C76.1419 250.699 76.1358 250.617 76.1303 250.535C76.1358 250.617 76.1419 250.699 76.148 250.783ZM76.1293 250.523C76.1274 250.494 76.1251 250.465 76.1232 250.436C76.1255 250.465 76.1274 250.493 76.1293 250.523ZM76.1222 250.42C76.1203 250.394 76.1185 250.368 76.1166 250.341C76.1185 250.369 76.1203 250.393 76.1222 250.42ZM76.1153 250.32C76.1133 250.294 76.1114 250.266 76.1101 250.239C76.1114 250.266 76.1133 250.292 76.1153 250.32ZM76.1087 250.223C76.1053 250.173 76.1026 250.126 76.0993 250.076C76.1026 250.126 76.1053 250.172 76.1087 250.223ZM76.0984 250.058C76.0964 250.033 76.0946 250.005 76.0932 249.98C76.0951 250.007 76.0964 250.031 76.0984 250.058ZM76.0918 249.957C76.0903 249.932 76.089 249.909 76.0871 249.884C76.089 249.909 76.0903 249.931 76.0918 249.957ZM76.0856 249.857C76.0843 249.833 76.0829 249.81 76.0814 249.787C76.0829 249.81 76.0843 249.833 76.0856 249.857ZM76.0801 249.76C76.0787 249.739 76.0772 249.716 76.0763 249.696C76.0772 249.716 76.0787 249.739 76.0801 249.76ZM76.0745 249.661C76.0735 249.645 76.0726 249.633 76.0716 249.619C76.0726 249.633 76.0735 249.647 76.0745 249.661ZM76.0689 249.563C76.0679 249.55 76.0669 249.536 76.0665 249.522C76.0674 249.537 76.0679 249.549 76.0689 249.563ZM76.0646 249.484C76.0632 249.465 76.0622 249.445 76.0613 249.426C76.0622 249.445 76.0632 249.465 76.0646 249.484ZM76.0595 249.392C76.0585 249.373 76.0571 249.352 76.0561 249.333C76.0576 249.354 76.0585 249.371 76.0595 249.392ZM76.0543 249.294C76.0539 249.279 76.0524 249.259 76.0515 249.243C76.0524 249.26 76.0534 249.278 76.0543 249.294ZM76.0497 249.2C76.0492 249.187 76.0482 249.174 76.0477 249.16C76.0482 249.175 76.0487 249.186 76.0497 249.2ZM76.045 249.101C76.044 249.09 76.0435 249.078 76.0431 249.066C76.0435 249.077 76.0445 249.09 76.045 249.101ZM76.0403 249.004C76.0398 248.995 76.0393 248.983 76.0389 248.973C76.0393 248.983 76.0398 248.994 76.0403 249.004ZM76.0355 248.908C76.0351 248.898 76.0351 248.893 76.0347 248.884C76.0351 248.892 76.0351 248.899 76.0355 248.908ZM76.0318 248.822C76.0313 248.812 76.0308 248.804 76.0303 248.794C76.0308 248.803 76.0313 248.813 76.0318 248.822ZM76.0276 248.726C76.0276 248.721 76.0271 248.713 76.0266 248.707C76.0271 248.713 76.0276 248.72 76.0276 248.726ZM76.0239 248.633C76.0234 248.625 76.0234 248.619 76.0229 248.612C76.0234 248.618 76.0234 248.626 76.0239 248.633ZM76.0202 248.538C76.0197 248.532 76.0197 248.525 76.0192 248.519C76.0197 248.525 76.0197 248.531 76.0202 248.538ZM76.0163 248.442C76.0158 248.436 76.0158 248.433 76.0158 248.427C76.0158 248.43 76.0158 248.437 76.0163 248.442ZM76.0126 248.346C76.0126 248.344 76.0126 248.342 76.0126 248.341C76.0126 248.342 76.0126 248.343 76.0126 248.346ZM76.0094 248.256C76.0094 248.254 76.0094 248.252 76.0094 248.25C76.0094 248.252 76.0094 248.254 76.0094 248.256ZM76.006 248.163C76.006 248.16 76.006 248.159 76.006 248.158C76.006 248.16 76.006 248.16 76.006 248.163ZM76.0032 248.07V248.065C76.0032 248.067 76.0032 248.067 76.0032 248.07ZM76.0004 247.977L76 247.973L76.0004 247.977Z" fill="#B74E1E"/>
<path d="M140.025 309.966C140.023 309.966 140.019 309.966 140.017 309.966C108.429 309.963 81.0011 286.724 76.6042 254.825C76.5994 254.791 76.5952 254.76 76.5905 254.726C76.5733 254.6 76.5564 254.473 76.54 254.346C76.5367 254.324 76.534 254.3 76.5306 254.277C76.5245 254.229 76.519 254.183 76.5129 254.136C76.5092 254.106 76.5058 254.08 76.5021 254.05C76.5016 254.047 76.5011 254.043 76.5007 254.038C76.4974 254.013 76.4937 253.985 76.4908 253.96C76.4899 253.956 76.489 253.945 76.4886 253.942C76.4852 253.916 76.4824 253.891 76.4792 253.865C76.4783 253.859 76.4773 253.851 76.4763 253.845C76.4736 253.82 76.4707 253.796 76.4675 253.771C76.4665 253.763 76.4656 253.757 76.4646 253.749C76.4618 253.726 76.4591 253.701 76.4562 253.678C76.4552 253.67 76.4544 253.661 76.4535 253.653C76.4511 253.633 76.4483 253.611 76.4459 253.591C76.4449 253.583 76.4436 253.572 76.4427 253.564C76.4403 253.542 76.438 253.522 76.4351 253.5C76.4343 253.49 76.4333 253.484 76.4324 253.473C76.4296 253.451 76.4267 253.426 76.4245 253.405C76.423 253.394 76.4221 253.387 76.4206 253.376C76.4183 253.355 76.416 253.333 76.4137 253.312C76.4122 253.301 76.4108 253.288 76.4095 253.277C76.4071 253.256 76.4047 253.236 76.4024 253.215C76.4015 253.205 76.4 253.191 76.3987 253.181C76.3973 253.165 76.3953 253.151 76.3936 253.135C76.3916 253.116 76.3897 253.102 76.3879 253.083C76.3865 253.07 76.3847 253.055 76.3832 253.041C76.3813 253.024 76.3795 253.008 76.3781 252.991C76.3762 252.975 76.3747 252.962 76.3729 252.947C76.3715 252.931 76.3697 252.915 76.3678 252.899C76.3664 252.884 76.3646 252.867 76.3626 252.851C76.3612 252.838 76.3598 252.823 76.3584 252.81C76.356 252.791 76.3543 252.773 76.3523 252.754C76.3509 252.738 76.3496 252.727 76.3481 252.712C76.3467 252.699 76.3453 252.687 76.344 252.672C76.342 252.653 76.3401 252.634 76.3378 252.615C76.3369 252.606 76.3359 252.594 76.335 252.584C76.3322 252.56 76.3298 252.536 76.3275 252.514C76.3266 252.503 76.3261 252.498 76.3251 252.489C76.3229 252.466 76.32 252.441 76.3182 252.417C76.3172 252.41 76.3163 252.399 76.3153 252.391C76.3135 252.372 76.3111 252.349 76.3093 252.33C76.3084 252.319 76.3069 252.305 76.3055 252.293C76.3042 252.279 76.3027 252.263 76.3013 252.248C76.3003 252.238 76.2995 252.227 76.2985 252.218C76.2961 252.194 76.2939 252.171 76.2915 252.149C76.291 252.14 76.29 252.134 76.2897 252.126C76.2868 252.101 76.2849 252.077 76.2826 252.051C76.2816 252.044 76.2807 252.034 76.2802 252.027C76.2779 252.001 76.2755 251.978 76.2733 251.953C76.2728 251.946 76.2718 251.936 76.2709 251.929C76.2686 251.902 76.2662 251.878 76.2639 251.85C76.2634 251.844 76.263 251.838 76.2625 251.833C76.2578 251.784 76.2531 251.732 76.2489 251.683C76.2489 251.681 76.2485 251.681 76.2485 251.679C76.2456 251.649 76.2428 251.615 76.2404 251.586C76.24 251.582 76.2396 251.575 76.2391 251.571C76.2367 251.544 76.2344 251.514 76.2316 251.487C76.2311 251.481 76.2311 251.477 76.2306 251.471C76.2283 251.444 76.2255 251.415 76.2237 251.386C76.2227 251.382 76.2227 251.378 76.2222 251.372C76.218 251.323 76.2138 251.273 76.21 251.224L76.2096 251.222C76.2072 251.19 76.2045 251.158 76.2021 251.126C76.2016 251.12 76.2011 251.114 76.2007 251.108C76.1984 251.081 76.1965 251.055 76.1942 251.027C76.1937 251.021 76.1932 251.015 76.1927 251.009C76.1908 250.982 76.1886 250.954 76.1866 250.926C76.1862 250.921 76.1857 250.919 76.1852 250.913C76.1834 250.883 76.181 250.854 76.1787 250.824C76.1787 250.821 76.1783 250.817 76.1778 250.814C76.1717 250.73 76.1655 250.648 76.16 250.566C76.1596 250.561 76.1596 250.558 76.1591 250.554C76.1572 250.524 76.1553 250.496 76.153 250.467C76.153 250.463 76.1525 250.456 76.152 250.451C76.1501 250.424 76.1483 250.4 76.1464 250.372C76.1459 250.364 76.1454 250.359 76.1451 250.351C76.1431 250.323 76.1412 250.297 76.1399 250.27C76.1394 250.266 76.139 250.258 76.1385 250.254C76.1351 250.203 76.1324 250.158 76.1291 250.107C76.1286 250.101 76.1286 250.095 76.1282 250.09C76.1263 250.062 76.1249 250.038 76.123 250.011C76.1225 250.002 76.1221 249.995 76.1216 249.988C76.1201 249.962 76.1188 249.94 76.1169 249.915C76.1164 249.906 76.1159 249.897 76.1155 249.888C76.1141 249.864 76.1127 249.841 76.1113 249.819C76.1108 249.81 76.1103 249.798 76.11 249.791C76.1085 249.77 76.1071 249.747 76.1061 249.727C76.1052 249.715 76.1048 249.704 76.1043 249.692C76.1034 249.678 76.1024 249.665 76.1014 249.65C76.1005 249.633 76.0997 249.612 76.0987 249.594C76.0977 249.58 76.0973 249.568 76.0963 249.554C76.0953 249.54 76.095 249.53 76.0945 249.516C76.0931 249.497 76.0921 249.476 76.0911 249.457C76.0907 249.446 76.0898 249.436 76.0894 249.424C76.0884 249.402 76.0874 249.386 76.086 249.364C76.0855 249.351 76.0852 249.339 76.0842 249.326C76.0832 249.309 76.0823 249.291 76.0813 249.275C76.0808 249.259 76.0804 249.247 76.0795 249.232C76.0786 249.217 76.0781 249.207 76.0776 249.191C76.0767 249.172 76.0757 249.152 76.0749 249.133C76.0744 249.122 76.0734 249.109 76.0729 249.098C76.072 249.077 76.071 249.056 76.0702 249.036C76.0697 249.025 76.0692 249.015 76.0687 249.005C76.0678 248.984 76.0663 248.961 76.0654 248.939C76.065 248.931 76.065 248.924 76.0645 248.916C76.0636 248.895 76.0626 248.873 76.0617 248.854C76.0612 248.845 76.0607 248.834 76.0602 248.826C76.0594 248.803 76.0584 248.782 76.0575 248.758C76.0575 248.752 76.057 248.745 76.0565 248.739C76.0556 248.714 76.0547 248.69 76.0538 248.665C76.0533 248.658 76.0533 248.65 76.0528 248.644C76.0519 248.619 76.0509 248.595 76.0501 248.57C76.0496 248.562 76.0496 248.556 76.0491 248.551C76.0481 248.525 76.0472 248.499 76.0462 248.474C76.0457 248.469 76.0457 248.462 76.0457 248.459C76.0444 248.431 76.0435 248.405 76.0425 248.378C76.0425 248.375 76.0425 248.374 76.0425 248.373C76.0415 248.345 76.0402 248.314 76.0393 248.288C76.0393 248.286 76.0393 248.284 76.0393 248.282C76.0383 248.253 76.0369 248.224 76.0359 248.195C76.0359 248.193 76.0359 248.193 76.0359 248.19C76.0351 248.159 76.0341 248.133 76.0332 248.102C76.0332 248.1 76.0332 248.1 76.0332 248.097C76.0317 248.066 76.0312 248.039 76.0303 248.009L76.0299 248.005C75.9362 244.955 76.0636 241.938 76.3973 238.974L90.3809 246.501C90.3977 248.431 90.5273 250.378 90.7769 252.341C93.9521 277.363 115.36 295.649 140.043 295.649C142.12 295.649 144.226 295.519 146.34 295.253C153.971 294.292 160.977 291.657 167.036 287.765L181 295.283C172.176 302.58 161.286 307.607 149.131 309.325C149.069 309.333 149.008 309.341 148.948 309.35C148.946 309.35 148.944 309.351 148.941 309.351C148.924 309.353 148.909 309.354 148.892 309.357C148.886 309.358 148.884 309.358 148.878 309.359C148.862 309.362 148.845 309.364 148.83 309.366C148.826 309.366 148.824 309.366 148.819 309.367C148.781 309.372 148.741 309.378 148.703 309.383C148.698 309.383 148.691 309.384 148.687 309.385C148.673 309.387 148.66 309.389 148.647 309.39C148.639 309.391 148.63 309.393 148.624 309.394C148.612 309.395 148.599 309.397 148.587 309.398C148.581 309.4 148.575 309.4 148.569 309.401C148.554 309.403 148.541 309.404 148.527 309.407C148.521 309.407 148.515 309.408 148.509 309.409C148.491 309.412 148.474 309.413 148.456 309.415C148.455 309.416 148.454 309.416 148.452 309.416C148.434 309.419 148.414 309.421 148.396 309.424C148.39 309.425 148.381 309.426 148.375 309.426C148.361 309.428 148.349 309.43 148.337 309.431C148.33 309.432 148.323 309.433 148.317 309.434C148.304 309.435 148.293 309.437 148.28 309.439C148.274 309.439 148.264 309.44 148.257 309.441C148.244 309.443 148.234 309.444 148.221 309.446C148.215 309.447 148.206 309.447 148.2 309.449C148.18 309.451 148.162 309.453 148.143 309.456C145.416 309.799 142.704 309.966 140.026 309.966H140.025Z" fill="#F68623"/>
<path d="M139.885 294.968C115.091 294.968 93.5872 276.739 90.3978 251.795C90.1471 249.839 90.0168 247.898 90 245.973L121.01 262.54L120.595 262.591L121.66 270.917L127.471 270.191L128.609 279.078L137.033 278.025L136.082 270.592L167 287.109C160.914 290.989 153.876 293.616 146.211 294.573C144.087 294.838 141.972 294.968 139.885 294.968Z" fill="#FABB29"/>
<path d="M128.8 278.97L127.693 269.836L122.037 270.581L121 262.024L121.404 261.972L136.075 270.248L137 277.888L128.8 278.97Z" fill="#F57E21"/>
<path d="M122.635 191.979L114 187.202C116.882 185.912 119.885 184.831 123 183.979C122.759 186.637 122.638 189.306 122.635 191.979Z" fill="#F68623"/>
<path d="M179.041 205.978C178.65 205.978 178.227 205.864 177.798 205.607C176.161 204.622 174.946 202.989 173.619 201.646C172.149 200.157 173.555 197.978 175.156 197.978C175.621 197.978 176.102 198.162 176.533 198.599C177.778 199.859 179.023 201.119 180.267 202.38C181.797 203.929 180.71 205.978 179.041 205.978Z" fill="#F9AA20"/>
<path d="M176 221.976L163.292 214.816C162.302 213.056 164 210.977 165.857 210.977C166.45 210.977 167.06 211.19 167.604 211.694C170.857 214.714 173.681 218.187 176 221.976Z" fill="#FAE750"/>
<path d="M218 200.978C193.541 187.725 131.51 154.341 93 134.553L152.725 126.986L212.073 153.966L218 200.978Z" fill="url(#paint10_linear_53_1730)"/>
<path d="M233 322.965L181 294.817C181.812 293.97 182.599 293.104 183.36 292.216C197.875 278.684 205.904 258.593 203.227 237.388C203.21 237.25 203.191 237.112 203.173 236.974L223.581 248.343L231.443 310.63L233 322.965Z" fill="url(#paint11_linear_53_1730)"/>
<path d="M181.404 294.968L181 294.738C182.026 293.843 183.026 292.92 184 291.968C183.163 292.992 182.298 293.991 181.404 294.968Z" fill="#A96D2A"/>
<path d="M180.955 294.968L180.948 294.964C187.084 289.825 192.214 283.566 196.066 276.543C190.866 276.172 185.742 275.413 180.743 274.158C187.562 264.376 190.929 252.102 189.325 239.307C188.807 235.179 187.802 231.231 186.374 227.519L203.437 237.087C203.455 237.225 203.474 237.364 203.491 237.502C206.161 258.795 198.153 278.969 183.675 292.557C182.792 293.386 181.885 294.19 180.955 294.968ZM123.242 198.835C123.079 196.553 122.998 194.265 123 191.979L131.265 196.615C128.493 197.135 125.812 197.882 123.242 198.835Z" fill="#F9AB29"/>
<path d="M180.953 273.97C173.452 272.116 166.232 269.172 159.467 264.792C160.373 264.253 161.254 263.599 162.073 262.804C164.185 260.751 166.544 257.056 165.788 251.122C165.283 247.154 163.577 243.905 160.857 241.716C162.896 238.994 163.796 235.469 163.281 231.42C162.526 225.485 159.316 222.49 156.757 221.024C154.134 219.522 151.331 219.086 148.956 219.086C148.403 219.086 147.874 219.11 147.375 219.149L146.811 214.72L141.565 215.379L142.125 219.783L139.226 220.146L138.666 215.743L133.419 216.402L133.979 220.805L130.1 221.292L129.219 214.381L125.475 214.851C124.209 209.71 123.38 204.46 123 199.183C125.59 198.236 128.292 197.494 131.087 196.979L163.757 215.026C163.892 215.262 164.076 215.492 164.316 215.71C170.689 221.511 175.207 228.99 177.334 237.314C177.674 238.644 178.704 239.221 179.767 239.221C181.373 239.221 183.053 237.906 182.537 235.889C181.298 231.039 179.299 226.394 176.65 222.149L186.628 227.662C188.067 231.348 189.08 235.268 189.602 239.367C191.219 252.071 187.826 264.258 180.953 273.97ZM182.46 244.218C181.891 244.218 181.304 244.379 180.802 244.695C178.57 246.11 179.978 249.842 179.703 252.01C179.492 253.681 180.912 254.586 182.349 254.586C183.715 254.586 185.095 253.767 185.1 252.009C185.351 250.03 185.219 248.05 184.859 246.089C184.63 244.834 183.577 244.218 182.46 244.218ZM151.482 258.739C151.34 258.613 151.197 258.487 151.054 258.359C147.639 255.307 144.521 251.976 141.708 248.421L150.151 247.361C150.54 247.312 150.913 247.24 151.288 247.173C151.434 247.168 151.584 247.164 151.735 247.164C153.058 247.164 154.477 247.404 155.508 248.221C156.78 249.229 157.235 250.928 157.394 252.176C157.781 255.216 156.556 256.407 156.155 256.799C155.129 257.795 153.472 258.482 151.482 258.739ZM136.191 240.545C134.435 237.702 132.846 234.758 131.427 231.732L131.16 229.629L147.471 227.581C147.976 227.518 148.467 227.486 148.941 227.486C150.349 227.486 151.592 227.766 152.528 228.303C153.015 228.582 154.5 229.432 154.887 232.474C155.346 236.09 153.777 238.124 150.019 238.854C149.704 238.88 149.406 238.886 149.078 238.928L136.191 240.545Z" fill="#F9DF42"/>
<path d="M158.608 264.971C155.899 263.177 153.264 261.143 150.713 258.849C152.68 258.589 154.319 257.893 155.333 256.886C155.73 256.49 156.941 255.285 156.558 252.209C156.401 250.947 155.95 249.229 154.694 248.208C153.674 247.382 152.271 247.14 150.963 247.14C150.814 247.14 150.666 247.143 150.521 247.148C150.15 247.217 149.781 247.289 149.397 247.339L141.05 248.411C139.079 245.862 137.261 243.203 135.594 240.444L148.336 238.808C148.661 238.766 148.955 238.76 149.267 238.733C152.981 237.995 154.534 235.937 154.079 232.279C153.696 229.202 152.229 228.342 151.747 228.06C150.821 227.517 149.593 227.234 148.201 227.234C147.732 227.234 147.246 227.266 146.747 227.33L130.62 229.401L130.885 231.529C128.382 226.06 126.415 220.325 125 214.453L128.702 213.977L129.572 220.968L133.408 220.475L132.854 216.021L138.042 215.355L138.595 219.809L141.461 219.441L140.907 214.986L146.095 214.32L146.652 218.801C147.145 218.761 147.668 218.737 148.215 218.737C150.564 218.737 153.335 219.178 155.928 220.697C158.458 222.18 161.632 225.21 162.378 231.213C162.888 235.309 161.998 238.875 159.982 241.628C162.671 243.842 164.358 247.129 164.857 251.143C165.604 257.146 163.272 260.884 161.184 262.961C160.374 263.765 159.503 264.427 158.608 264.971Z" fill="#F8A023"/>
<path d="M69.3142 233.975L43.6361 220.099L35.087 152.49C34.6826 149.29 35.7117 146.239 37.6738 143.984L114 186.426C110.645 187.936 107.454 189.721 104.452 191.749C87.2225 199.86 74.4047 215.584 69.3142 233.975Z" fill="url(#paint12_linear_53_1730)"/>
<path d="M76.1544 237.974L69 234.102C74.0705 215.757 86.838 200.07 104 191.979C88.6567 202.361 78.264 219.126 76.1544 237.974Z" fill="#A96D2A"/>
<path d="M76.0005 237.974L76 237.973C78.0889 219.239 88.3792 202.576 103.571 192.257C106.532 190.246 109.679 188.477 112.988 186.98L113 186.987C92.7089 196.164 78.4971 215.586 76.0005 237.974Z" fill="#F9AB29"/>
<path d="M180.756 294.968L166.772 287.406C172.204 283.9 176.874 279.383 180.549 274.15C185.59 275.406 190.757 276.165 196 276.536C192.116 283.563 186.944 289.825 180.756 294.968ZM90.0041 245.896L76 238.324C78.5258 215.779 92.9038 196.221 113.432 186.98L122.324 191.927C122.322 194.214 122.403 196.503 122.568 198.787C103.085 205.955 89.8217 224.765 90.0041 245.896Z" fill="#F89A26"/>
<path d="M166.305 286.969L135.667 270.42L135.483 268.963L139.342 268.476L139.822 272.277L145.04 271.62L144.559 267.817L147.442 267.453L147.923 271.255L153.14 270.596L152.656 266.77C154.457 266.457 156.604 265.838 158.633 264.624C165.361 269.006 172.54 271.952 180 273.807C176.347 279.003 171.705 283.488 166.305 286.969ZM120.731 262.352L90.0018 245.753C89.8206 224.772 103.003 206.096 122.369 198.978C122.747 204.258 123.571 209.511 124.83 214.655L120.205 215.239L121.079 222.154L115.32 222.881L116.376 231.222L122.135 230.496L126.079 261.677L120.731 262.352ZM134.427 260.622L132.989 249.252L140.973 248.244C143.77 251.801 146.871 255.134 150.267 258.188C150.409 258.315 150.551 258.441 150.693 258.568C150.679 258.57 150.663 258.573 150.648 258.574L134.427 260.622ZM131.921 240.814L130.749 231.545C132.16 234.573 133.74 237.519 135.486 240.363L131.921 240.814Z" fill="#FCCA38"/>
<path d="M140.325 271.97L139.848 268.145L136.016 268.635L136.2 270.101L121.372 261.981L126.681 261.301L122.765 229.919L117.048 230.651L116 222.256L121.717 221.524L120.85 214.564L125.441 213.977C126.854 219.822 128.818 225.532 131.317 230.976L132.481 240.304L136.02 239.851C137.685 242.597 139.5 245.244 141.468 247.782L133.541 248.796L134.969 260.24L151.072 258.178C151.087 258.177 151.103 258.175 151.117 258.172C153.664 260.456 156.296 262.482 159 264.267C156.985 265.489 154.854 266.113 153.066 266.427L153.547 270.278L148.367 270.941L147.889 267.114L145.028 267.481L145.505 271.308L140.325 271.97Z" fill="#F79323"/>
<path d="M180.116 238.974C179.046 238.974 178.009 238.402 177.667 237.083C175.526 228.827 170.978 221.409 164.563 215.655C164.321 215.439 164.136 215.211 164 214.977L176.978 222.042C179.645 226.252 181.657 230.859 182.904 235.67C183.424 237.67 181.732 238.974 180.116 238.974Z" fill="#F9ED62"/>
<path d="M181.976 254.972C180.468 254.972 178.977 254.099 179.198 252.488C179.487 250.397 178.009 246.798 180.352 245.434C180.879 245.128 181.495 244.973 182.093 244.973C183.265 244.973 184.371 245.567 184.611 246.778C184.989 248.669 185.127 250.578 184.864 252.487C184.859 254.182 183.41 254.972 181.976 254.972Z" fill="#F9ED62"/>
<path d="M198.605 109.547C197.818 109.547 197.023 109.597 196.223 109.697L43.091 129.037C32.7524 130.344 25.4036 139.812 26.7107 150.143L67.6561 473.868C68.2888 478.873 70.8337 483.331 74.8235 486.422C78.8128 489.514 83.7716 490.872 88.776 490.237L241.908 470.896C246.915 470.263 251.378 467.719 254.472 463.733C257.566 459.747 258.921 454.796 258.288 449.79L217.343 126.066C216.137 116.535 207.979 109.547 198.605 109.547ZM86.3649 491.947C81.8522 491.947 77.4917 490.463 73.8676 487.654C69.5492 484.307 66.7939 479.48 66.1088 474.062L25.1627 150.339C23.749 139.154 31.7037 128.905 42.8956 127.491L196.026 108.151C207.215 106.739 217.475 114.687 218.89 125.87L259.835 449.596C260.52 455.013 259.053 460.374 255.704 464.689C252.356 469.004 247.525 471.758 242.103 472.441L242.005 471.668L242.103 472.441L88.9719 491.782C88.0997 491.891 87.2295 491.947 86.3649 491.947Z" fill="#F5FBF1"/>
<defs>
<linearGradient id="paint0_linear_53_1730" x1="355.999" y1="450.451" x2="451.998" y2="450.451" gradientUnits="userSpaceOnUse">
<stop stop-color="#7331C6"/>
<stop offset="0.942708" stop-color="#E62EDE"/>
</linearGradient>
<linearGradient id="paint1_linear_53_1730" x1="103" y1="45.4945" x2="199" y2="45.4945" gradientUnits="userSpaceOnUse">
<stop stop-color="#D63AA5"/>
<stop offset="0.997995" stop-color="#D792CF"/>
<stop offset="1" stop-color="#D792CF"/>
</linearGradient>
<linearGradient id="paint2_linear_53_1730" x1="448.563" y1="-21.1508" x2="375.092" y2="348.23" gradientUnits="userSpaceOnUse">
<stop stop-color="#FFA5E3"/>
<stop offset="1" stop-color="#2B1567"/>
</linearGradient>
<linearGradient id="paint3_linear_53_1730" x1="448.118" y1="-18.9449" x2="375.713" y2="347.308" gradientUnits="userSpaceOnUse">
<stop stop-color="#D05AB4"/>
<stop offset="1" stop-color="#8568BB"/>
</linearGradient>
<linearGradient id="paint4_linear_53_1730" x1="449.06" y1="-19.5397" x2="376.558" y2="347.153" gradientUnits="userSpaceOnUse">
<stop stop-color="#D05AB4"/>
<stop offset="1" stop-color="#8568BB"/>
</linearGradient>
<linearGradient id="paint5_linear_53_1730" x1="448.715" y1="-22.4177" x2="374.144" y2="349.344" gradientUnits="userSpaceOnUse">
<stop stop-color="#D94CAE"/>
<stop offset="1" stop-color="#655DB4"/>
</linearGradient>
<linearGradient id="paint6_linear_53_1730" x1="448.557" y1="-21.8338" x2="375.041" y2="347.749" gradientUnits="userSpaceOnUse">
<stop stop-color="#D94CAE"/>
<stop offset="1" stop-color="#655DB4"/>
</linearGradient>
<linearGradient id="paint7_linear_53_1730" x1="165.231" y1="500.509" x2="117.371" y2="88.0834" gradientUnits="userSpaceOnUse">
<stop stop-color="#4641A1"/>
<stop offset="0.00134342" stop-color="#4641A1"/>
<stop offset="0.997313" stop-color="#62CDF5"/>
<stop offset="1" stop-color="#62CDF5"/>
</linearGradient>
<linearGradient id="paint8_linear_53_1730" x1="165.565" y1="499.947" x2="118.101" y2="88.7575" gradientUnits="userSpaceOnUse">
<stop stop-color="#5E4AA8"/>
<stop offset="0.00134342" stop-color="#5E4AA8"/>
<stop offset="0.997313" stop-color="#7DD5F3"/>
<stop offset="1" stop-color="#7DD5F3"/>
</linearGradient>
<linearGradient id="paint9_linear_53_1730" x1="164.843" y1="502.762" x2="114.876" y2="81.1239" gradientUnits="userSpaceOnUse">
<stop stop-color="#5E4AA8"/>
<stop offset="0.00134342" stop-color="#5E4AA8"/>
<stop offset="0.997313" stop-color="#7DD5F3"/>
<stop offset="1" stop-color="#7DD5F3"/>
</linearGradient>
<linearGradient id="paint10_linear_53_1730" x1="165.292" y1="499.76" x2="117.447" y2="87.3808" gradientUnits="userSpaceOnUse">
<stop stop-color="#444BA7"/>
<stop offset="0.00134342" stop-color="#444BA7"/>
<stop offset="0.997313" stop-color="#67CEEF"/>
<stop offset="1" stop-color="#67CEEF"/>
</linearGradient>
<linearGradient id="paint11_linear_53_1730" x1="165.028" y1="499.594" x2="117.339" y2="88.1527" gradientUnits="userSpaceOnUse">
<stop stop-color="#444BA7"/>
<stop offset="0.00134342" stop-color="#444BA7"/>
<stop offset="0.997313" stop-color="#67CEEF"/>
<stop offset="1" stop-color="#67CEEF"/>
</linearGradient>
<linearGradient id="paint12_linear_53_1730" x1="165.763" y1="500.845" x2="117.858" y2="86.8228" gradientUnits="userSpaceOnUse">
<stop stop-color="#444BA7"/>
<stop offset="0.00134342" stop-color="#444BA7"/>
<stop offset="0.997313" stop-color="#67CEEF"/>
<stop offset="1" stop-color="#67CEEF"/>
</linearGradient>
</defs>
</svg>
